<svg xmlns="http://www.w3.org/2000/svg" xmlns:xlink="http://www.w3.org/1999/xlink" width="280" height="33" viewBox="0 0 280 33">
    <defs>
        <path id="a" d="M0 .587h280V33H0z"/>
        <path id="c" d="M0 .587h280V33H0z"/>
        <path id="e" d="M0 .587h280V33H0z"/>
        <path id="g" d="M0 .587h280V33H0z"/>
        <path id="i" d="M0 .587h280V33H0z"/>
        <path id="k" d="M0 .587h280V33H0z"/>
        <path id="m" d="M0 .587h280V33H0z"/>
        <path id="o" d="M0 .587h280V33H0z"/>
        <path id="q" d="M0 .587h280V33H0z"/>
        <path id="s" d="M0 .587h280V33H0z"/>
        <path id="u" d="M0 .587h280V33H0z"/>
        <path id="w" d="M0 .587h280V33H0z"/>
        <path id="y" d="M0 .587h280V33H0z"/>
        <path id="A" d="M0 .587h280V33H0z"/>
        <path id="C" d="M0 .587h280V33H0z"/>
        <path id="E" d="M0 .587h280V33H0z"/>
        <path id="G" d="M0 .587h280V33H0z"/>
    </defs>
    <g fill="none" fill-rule="evenodd">
        <g>
            <mask id="b" fill="#fff">
                <use xlink:href="#a"/>
            </mask>
            <path fill="#1D1D1D" fill-rule="nonzero" d="M9.408 6.673c0-2.2-1.419-3.813-3.51-3.813-2.09 0-3.509 1.613-3.509 3.813s1.419 3.814 3.51 3.814c2.09-.074 3.509-1.614 3.509-3.814M0 6.673C0 3.227 2.763.66 5.899.66s5.898 2.567 5.898 6.013c0 3.447-2.762 6.014-5.898 6.014C2.763 12.687 0 10.12 0 6.673" mask="url(#b)"/>
        </g>
        <g>
            <mask id="d" fill="#fff">
                <use xlink:href="#c"/>
            </mask>
            <path fill="#1D1D1D" fill-rule="nonzero" d="M17.696 12.687c-2.613 0-4.48-1.687-4.48-3.887h2.24c.224 1.467 1.419 1.833 2.24 1.833.597 0 1.792-.22 1.792-1.32 0-1.026-.97-1.393-1.941-1.76-1.643-.66-3.958-1.393-3.958-3.666 0-1.98 1.792-3.227 3.958-3.227 2.538 0 3.882 1.613 3.882 3.153h-2.24c-.149-.66-.896-1.1-1.717-1.1-.821 0-1.493.44-1.493 1.174 0 .733.672 1.026 1.866 1.54 1.27.586 3.958 1.246 3.958 3.886-.075 2.2-1.942 3.374-4.107 3.374" mask="url(#d)"/>
        </g>
        <path fill="#1D1D1D" fill-rule="nonzero" d="M23.484.892v11.594h8.129v-2.218h-5.786V.892z"/>
        <g>
            <mask id="f" fill="#fff">
                <use xlink:href="#e"/>
            </mask>
            <path fill="#1D1D1D" fill-rule="nonzero" d="M42.261 6.673c0-2.2-1.418-3.813-3.509-3.813-2.09 0-3.51 1.613-3.51 3.813s1.42 3.814 3.51 3.814c2.09-.074 3.51-1.614 3.51-3.814m-9.409 0c0-3.446 2.763-6.013 5.899-6.013s5.899 2.567 5.899 6.013c0 3.447-2.763 6.014-5.899 6.014s-5.899-2.567-5.899-6.014" mask="url(#f)"/>
        </g>
        <path fill="#1D1D1D" fill-rule="nonzero" d="M60.399.892l-2.9 8.16h-.29L54.384.891h-2.9v11.594h2.248V5.401h.072l2.175 6.227h2.754L60.906 5.4h.145v7.085h2.175V.892zM65.935.892v11.594h8.13v-2.075h-5.818V7.62h5.146V5.544h-5.146V2.967h5.668V.892zM74.968.892v2.004h3.368v9.59h2.373v-9.59H84V.892z"/>
        <g>
            <mask id="h" fill="#fff">
                <use xlink:href="#g"/>
            </mask>
            <path fill="#1D1D1D" fill-rule="nonzero" d="M88.181 6.16h1.867c.97 0 1.643-.733 1.643-1.76 0-.953-.672-1.54-1.643-1.54h-1.867v3.3zm3.958 6.453l-2.614-4.326h-1.418v4.326H85.94V.733h4.256c2.016 0 3.734 1.32 3.734 3.667 0 1.613-.896 2.86-2.166 3.447l2.912 4.766H92.14z" mask="url(#h)"/>
        </g>
        <g>
            <mask id="j" fill="#fff">
                <use xlink:href="#i"/>
            </mask>
            <path fill="#1D1D1D" fill-rule="nonzero" d="M104.907 6.673c0-2.2-1.419-3.813-3.51-3.813-2.09 0-3.509 1.613-3.509 3.813s1.419 3.814 3.51 3.814c2.09-.074 3.509-1.614 3.509-3.814m-9.408 0c0-3.446 2.762-6.013 5.898-6.013 3.136 0 5.899 2.567 5.899 6.013 0 3.447-2.763 6.014-5.899 6.014S95.5 10.12 95.5 6.673" mask="url(#j)"/>
        </g>
        <g>
            <mask id="l" fill="#fff">
                <use xlink:href="#k"/>
            </mask>
            <path fill="#1D1D1D" fill-rule="nonzero" d="M115.285 4.327c0-1.027-.672-1.54-1.642-1.54h-2.24v3.3h2.24c1.045 0 1.642-.734 1.642-1.76m2.315 0c0 2.346-1.792 3.813-3.733 3.813h-2.39v4.4h-2.165V.733h4.63c1.866 0 3.658 1.247 3.658 3.594" mask="url(#l)"/>
        </g>
        <g>
            <mask id="n" fill="#fff">
                <use xlink:href="#m"/>
            </mask>
            <path fill="#1D1D1D" fill-rule="nonzero" d="M128.203 6.673c0-2.2-1.419-3.813-3.51-3.813-2.09 0-3.509 1.613-3.509 3.813s1.419 3.814 3.51 3.814c2.165-.074 3.509-1.614 3.509-3.814m-9.408 0c0-3.446 2.762-6.013 5.898-6.013 3.136 0 5.899 2.567 5.899 6.013 0 3.447-2.763 6.014-5.899 6.014s-5.898-2.567-5.898-6.014" mask="url(#n)"/>
        </g>
        <path fill="#1D1D1D" fill-rule="nonzero" d="M132.774.892v11.594h8.13v-2.218h-5.786V.892zM142.71.892h2.71v11.595h-2.71zM147.226.892v2.004h3.34v9.59h2.352v-9.59h3.34V.892zM160.665 3.826h.437l1.309 4.008h-3.055l1.31-4.008zm-1.31-2.934l-4 11.594h2.4l.8-2.505h4.438l.8 2.505h2.4l-4-11.594h-2.837zM174.915.892v7.3h-.211l-4.517-7.3H168v11.594h2.188V4.971h.211l4.516 7.515h2.117V.892z"/>
        <g>
            <mask id="p" fill="#fff">
                <use xlink:href="#o"/>
            </mask>
            <path fill="#1D1D1D" fill-rule="nonzero" d="M194.133 7.48c0 3.667-2.165 5.207-4.853 5.207-2.688 0-4.853-1.54-4.853-5.207V.733h2.389v6.6c0 1.907.821 3.08 2.464 3.08s2.464-1.173 2.464-3.08v-6.6h2.39V7.48z" mask="url(#p)"/>
        </g>
        <path fill="#1D1D1D" fill-rule="nonzero" d="M203.748.892v7.3h-.212l-4.516-7.3h-2.117v11.594h2.117V4.971h.212l4.516 7.515h2.187V.892zM208.645.892h2.71v11.595h-2.71zM220.578.892l-2.672 9.018h-.381L214.853.892h-2.595l3.664 11.594h3.587L223.097.892zM224.903.892v11.594h8.13v-2.075h-5.818V7.62h5.146V5.544h-5.146V2.967h5.668V.892z"/>
        <g>
            <mask id="r" fill="#fff">
                <use xlink:href="#q"/>
            </mask>
            <path fill="#1D1D1D" fill-rule="nonzero" d="M237.515 6.16h1.866c.971 0 1.643-.733 1.643-1.76 0-.953-.672-1.54-1.643-1.54h-1.866v3.3zm4.032 6.453l-2.614-4.326h-1.418v4.326h-2.166V.733h4.256c2.016 0 3.734 1.32 3.734 3.667 0 1.613-.896 2.86-2.166 3.447l2.912 4.766h-2.538z" mask="url(#r)"/>
        </g>
        <g>
            <mask id="t" fill="#fff">
                <use xlink:href="#s"/>
            </mask>
            <path fill="#1D1D1D" fill-rule="nonzero" d="M249.76 12.687c-2.613 0-4.48-1.687-4.48-3.887h2.24c.224 1.467 1.419 1.833 2.24 1.833.597 0 1.792-.22 1.792-1.32 0-1.026-.97-1.393-1.941-1.76-1.643-.66-3.958-1.393-3.958-3.666 0-1.98 1.792-3.227 3.958-3.227 2.538 0 3.882 1.613 3.882 3.153h-2.24c-.149-.66-.896-1.1-1.717-1.1-.821 0-1.493.44-1.493 1.174 0 .733.672 1.026 1.866 1.54 1.27.586 3.958 1.246 3.958 3.886-.075 2.2-1.942 3.374-4.107 3.374" mask="url(#t)"/>
        </g>
        <path fill="#1D1D1D" fill-rule="nonzero" d="M256.516.892h2.71v11.595h-2.71zM260.129.892v2.004h3.34v9.59h2.353v-9.59h3.34V.892zM277.257.892l-2.15 3.507h-.223l-2.15-3.507h-2.67l3.782 5.797v5.797h2.373V6.69L280 .892z"/>
        <g>
            <mask id="v" fill="#fff">
                <use xlink:href="#u"/>
            </mask>
            <path fill="#1D1D1D" fill-rule="nonzero" d="M4.853 33c-2.688 0-4.48-1.76-4.48-3.667h1.568c.075 1.32 1.494 2.2 2.987 2.2 1.045 0 2.39-.44 2.39-1.686 0-1.1-1.046-1.54-2.689-2.2-1.717-.66-3.957-1.54-3.957-3.594 0-1.833 1.792-3.153 3.883-3.153 2.464 0 3.957 1.76 3.957 3.227H6.944c-.075-.88-.896-1.76-2.464-1.76-1.344 0-2.24.733-2.24 1.54 0 1.173 1.643 1.76 2.613 2.126 1.792.734 3.958 1.54 3.958 3.74C8.885 31.827 6.944 33 4.853 33" mask="url(#v)"/>
        </g>
        <path fill="#1D1D1D" fill-rule="nonzero" d="M9.935 21.405v1.432h3.282V33h1.64V22.837h3.208v-1.432z"/>
        <g>
            <mask id="x" fill="#fff">
                <use xlink:href="#w"/>
            </mask>
            <path fill="#1D1D1D" fill-rule="nonzero" d="M29.568 26.987c0-2.64-1.792-4.547-4.256-4.547-2.539 0-4.256 1.907-4.256 4.547 0 2.64 1.792 4.546 4.256 4.546 2.464 0 4.256-1.906 4.256-4.546m-10.23 0c0-3.447 2.763-6.014 5.9-6.014 3.135 0 5.898 2.567 5.898 6.014 0 3.446-2.763 6.013-5.899 6.013s-5.898-2.567-5.898-6.013" mask="url(#x)"/>
        </g>
        <g>
            <mask id="z" fill="#fff">
                <use xlink:href="#y"/>
            </mask>
            <path fill="#1D1D1D" fill-rule="nonzero" d="M35.093 26.767h2.539c1.195 0 2.464-.66 2.464-2.274 0-1.54-1.27-2.053-2.464-2.053h-2.539v4.327zm5.376 6.16l-3.21-4.767h-2.166v4.767H33.6v-11.88h4.181c2.016 0 3.808 1.246 3.808 3.446 0 1.834-1.194 3.08-2.688 3.52l3.286 4.914h-1.718z" mask="url(#z)"/>
        </g>
        <g>
            <mask id="B" fill="#fff">
                <use xlink:href="#A"/>
            </mask>
            <path fill="#1D1D1D" fill-rule="nonzero" d="M50.997 29.48c0-1.467-1.045-2.053-2.613-2.053h-2.539v4.106h2.539c1.643 0 2.613-.66 2.613-2.053zm-5.152-3.373h2.24c1.643 0 2.315-.807 2.315-1.834 0-1.246-.97-1.833-2.39-1.833h-2.165v3.667zm6.72 3.52c0 1.76-1.344 3.3-4.032 3.3h-4.181v-11.88h3.808c2.165 0 3.808 1.1 3.808 3.006 0 1.174-.597 2.054-1.419 2.494v.22a3.012 3.012 0 0 1 2.016 2.86z" mask="url(#B)"/>
        </g>
        <path fill="#1D1D1D" fill-rule="nonzero" d="M61.284 21.405l-2.914 4.223h-.224l-2.988-4.223H53.29l4.184 5.798V33h1.568v-5.797l4.184-5.798z"/>
        <g>
            <mask id="D" fill="#fff">
                <use xlink:href="#C"/>
            </mask>
            <path fill="#1D1D1D" fill-rule="nonzero" d="M74.443 27.793c0 3.667-2.166 5.207-4.854 5.207s-4.928-1.54-4.928-5.207v-6.82h1.643v6.6c0 2.787 1.419 3.887 3.285 3.887 1.792 0 3.211-1.1 3.211-3.887v-6.6h1.643v6.82z" mask="url(#D)"/>
        </g>
        <path fill="#1D1D1D" fill-rule="nonzero" d="M84.395 21.405v9.448h-.212l-5.574-9.448h-1.835V33h1.411v-9.233h.212L83.76 33h2.046V21.405zM89.419 21.405h1.806V33h-1.806zM101.324 21.405L98.107 31.57h-.214l-3.217-10.164h-1.644L96.75 33h2.502l3.717-11.595zM105.677 21.405V33h7.226v-1.431h-5.767v-3.722h5.142v-1.432h-5.142v-3.578h5.628v-1.432z"/>
        <g>
            <g>
                <mask id="F" fill="#fff">
                    <use xlink:href="#E"/>
                </mask>
                <path fill="#1D1D1D" fill-rule="nonzero" d="M117.525 26.767h2.539c1.195 0 2.464-.66 2.464-2.274 0-1.54-1.27-2.053-2.464-2.053h-2.539v4.327zm5.376 6.16l-3.21-4.767h-2.166v4.767h-1.493v-11.88h4.181c2.016 0 3.808 1.246 3.808 3.446 0 1.834-1.194 3.08-2.688 3.52l3.286 4.914H122.9z" mask="url(#F)"/>
            </g>
            <g>
                <mask id="H" fill="#fff">
                    <use xlink:href="#G"/>
                </mask>
                <path fill="#1D1D1D" fill-rule="nonzero" d="M130.667 33c-2.688 0-4.48-1.76-4.48-3.667h1.568c.074 1.32 1.493 2.2 2.986 2.2 1.046 0 2.39-.44 2.39-1.686 0-1.1-1.046-1.54-2.688-2.2-1.718-.66-3.958-1.54-3.958-3.594 0-1.833 1.792-3.153 3.883-3.153 2.464 0 3.957 1.76 3.957 3.227h-1.568c-.074-.88-.896-1.76-2.464-1.76-1.344 0-2.24.733-2.24 1.54 0 1.173 1.643 1.76 2.614 2.126 1.792.734 3.957 1.54 3.957 3.74.075 2.054-1.792 3.227-3.957 3.227" mask="url(#H)"/>
            </g>
        </g>
        <path fill="#1D1D1D" fill-rule="nonzero" d="M137.29 21.405h1.806V33h-1.806zM140.903 21.405v1.432h3.252V33h1.626V22.837h3.251v-1.432zM150.839 21.405V33h7.226v-1.431h-5.698v-3.722h5.072v-1.432h-5.072v-3.578h5.559v-1.432zM160.774 21.405v1.432h3.207V33h1.64V22.837h3.282v-1.432zM170.71 21.405V33h7.225v-1.431h-5.766v-3.722h5.141v-1.432h-5.141v-3.578h5.628v-1.432zM180.645 21.405v1.432h3.282V33h1.64V22.837h3.207v-1.432z"/>
    </g>
</svg>
